# xmcd
#
# Track frame offsets: 
#        150
#        6346
#        12247
#        30212
#        35795
#        44206
#        60706
#        67863
#        75608
#        88306
#        92080
#        97545
#        100833
#        107411
#        113458
#        114723
#        139878
#        147513
#        158630
#        183466
#        201381
#        204953
#
# Disc length: 2885 seconds
#
# Revision: 0
# Processed by: cddbd v1.5.2PL0 Copyright (c) Steve Scherf et al.
# Submitted via: ExactAudioCopy v0.99pb4
#
DISCID=240b4316
DTITLE=Wilson Dixon - Introducing Wilson Dixon
DYEAR=2011
DGENRE=Country
TTITLE0=NZ customs
TTITLE1=Recession
TTITLE2=Life
TTITLE3=Village People
TTITLE4=Big Family
TTITLE5=I Go Home
TTITLE6=1st Gig
TTITLE7=Cattle Farmer
TTITLE8=Daddy's Drinking Again
TTITLE9=The Gambler
TTITLE10=Baa Baa Black Sheep
TTITLE11=Cripple Creek
TTITLE12=Big Ole Rocky Mountain
TTITLE13=Cheese
TTITLE14=Childhood Innocence
TTITLE15=The Boss
TTITLE16=What Time You Call This?
TTITLE17=More Talking, Less Action
TTITLE18=Dwayne's House
TTITLE19=Leave Those Kids Alone
TTITLE20=Wood Festival
TTITLE21=Sticks 'n' Stones
EXTD=
EXTT0=
EXTT1=
EXTT2=
EXTT3=
EXTT4=
EXTT5=
EXTT6=
EXTT7=
EXTT8=
EXTT9=
EXTT10=
EXTT11=
EXTT12=
EXTT13=
EXTT14=
EXTT15=
EXTT16=
EXTT17=
EXTT18=
EXTT19=
EXTT20=
EXTT21=
PLAYORDER=
